# xmcd CD database file
#
# Track frame offsets:
#	150
#	23780
#	45810
#
# Disc length: 922 seconds
#
# Revision: 2
# Processed by: cddbd v1.5.1PL2 Copyright (c) Steve Scherf et al.
# Submitted via: CDex 1.60beta1-cs1
#
DISCID=14039803
DTITLE=春原佑紀 - ポーラスター ～君だけ信じて～
DYEAR=1997
DGENRE=JPop
TTITLE0=ポーラスター ～君だけ信じて～
TTITLE1=AGAIN
TTITLE2=ポーラスター ～君だけ信じて～ (オリジナル・カラオケ)
EXTD=YEAR: 1997
EXTT0=
EXTT1=
EXTT2=
PLAYORDER=
